<svg width="16" height="16" viewBox="0 0 16 16" fill="none" xmlns="http://www.w3.org/2000/svg">
<rect width="16" height="16" rx="2" fill="white"/>
<path d="M9.15137 7.81625L11.8341 12.4646C12.2974 13.2663 12.2018 13.8786 12.1136 14.1654C13.7464 12.5216 12.6339 10.7913 12.5861 10.7178L10.6646 7.3915C10.4047 6.95487 10.2557 6.46117 10.2307 5.95361L9.15137 7.81625Z" fill="#FFCC32"/>
<path d="M12.0917 1.83472C10.4681 1.83472 9.76574 3.19906 9.73081 3.26893L7.81117 6.59336C7.56423 7.03926 7.21199 7.418 6.78516 7.6966H8.94383L11.6192 3.0446C12.0825 2.24475 12.6581 2.01675 12.9523 1.9524C12.6718 1.87583 12.3825 1.83627 12.0917 1.83472V1.83472Z" fill="#183665"/>
<path d="M8.5994 9.46386C9.09024 9.46338 9.5742 9.57933 10.0115 9.80218L8.94324 7.94138H3.56862C2.64926 7.94138 2.15832 7.55525 1.95605 7.33276C2.20796 8.25213 2.73384 8.89753 3.52266 9.23401C3.899 9.39454 4.30508 9.4735 4.71415 9.46569H8.5994V9.46386Z" fill="#D23339"/>
</svg>
